<svg xmlns="http://www.w3.org/2000/svg" viewBox="0 12.449999809265137 111.5 40.45000076293945" data-asc="1.05" width="111.5" height="40.45000076293945"><defs/><g fill="#ffffff"><g transform="translate(0, 0)"><path d="M24.15 46.30L11.05 46.30L8.95 52.50L0 52.50L12.70 17.40L22.60 17.40L35.30 52.50L26.25 52.50L24.15 46.30M21.95 39.70L17.60 26.85L13.30 39.70L21.95 39.70ZM51.70 44.50L57.75 24.60L66.85 24.60L56.95 52.50L46.40 52.50L36.50 24.60L45.65 24.60L51.70 44.50ZM74.75 21.70Q72.50 21.70 71.08 20.38Q69.65 19.05 69.65 17.10Q69.65 15.10 71.08 13.77Q72.50 12.45 74.75 12.45Q76.95 12.45 78.38 13.77Q79.80 15.10 79.80 17.10Q79.80 19.05 78.38 20.38Q76.95 21.70 74.75 21.70M79.00 24.60L79.00 52.50L70.45 52.50L70.45 24.60L79.00 24.60ZM111.50 38.10Q111.50 39.30 111.35 40.60L92.00 40.60Q92.20 43.20 93.68 44.58Q95.15 45.95 97.30 45.95Q100.50 45.95 101.75 43.25L110.85 43.25Q110.15 46 108.33 48.20Q106.50 50.40 103.75 51.65Q101.00 52.90 97.60 52.90Q93.50 52.90 90.30 51.15Q87.10 49.40 85.30 46.15Q83.50 42.90 83.50 38.55Q83.50 34.20 85.28 30.95Q87.05 27.70 90.25 25.95Q93.45 24.20 97.60 24.20Q101.65 24.20 104.80 25.90Q107.95 27.60 109.73 30.75Q111.50 33.90 111.50 38.10M102.75 35.85Q102.75 33.65 101.25 32.35Q99.75 31.05 97.50 31.05Q95.35 31.05 93.88 32.30Q92.40 33.55 92.05 35.85L102.75 35.85Z"/></g></g></svg>